<svg width="150" height="57" viewBox="0 0 150 57" xmlns="http://www.w3.org/2000/svg">
  <!--
    NSIS installer top header strip (150×57).
  -->
  <defs>
    <linearGradient id="bg" x1="0" y1="0" x2="1" y2="0">
      <stop offset="0"   stop-color="#040206"/>
      <stop offset="1"   stop-color="#0C0818"/>
    </linearGradient>
    <linearGradient id="flame" x1="0.5" y1="1" x2="0.5" y2="0">
      <stop offset="0" stop-color="#FF1744"/>
      <stop offset="0.5" stop-color="#FF5500"/>
      <stop offset="1" stop-color="#FFB300"/>
    </linearGradient>
  </defs>

  <rect width="150" height="57" fill="url(#bg)"/>
  <rect y="0" width="150" height="2" fill="#FF5500"/>

  <g transform="translate(8, 10)">
    <rect width="30" height="30" rx="5" ry="5"
          fill="none" stroke="#FF5500" stroke-width="1.8"/>
    <rect x="1" y="1" width="28" height="28" rx="4" ry="4"
          fill="#FF5500" fill-opacity="0.10"/>
    <g transform="translate(15, 16) scale(0.85) translate(-12, -12)">
      <path
        d="M8.5 14.5A2.5 2.5 0 0 0 11 12c0-1.38-.5-2-1-3-1.072-2.143-.224-4.054 2-6 .5 2.5 2 4.9 4 6.5 2 1.6 3 3.5 3 5.5a7 7 0 1 1-14 0c0-1.153.433-2.294 1-3a2.5 2.5 0 0 0 2.5 2.5z"
        fill="url(#flame)"/>
    </g>
  </g>

  <text x="46" y="29" font-family="Rajdhani, Arial, sans-serif" font-size="14" font-weight="700"
        letter-spacing="0" fill="#E8D8C8">DRIFT<tspan fill="#FF5500"> COACH</tspan></text>
  <text x="46" y="42" font-family="Share Tech Mono, monospace" font-size="6"
        letter-spacing="1.5" fill="#7A6A5A">FORZA TELEMETRY · AI</text>
</svg>
